<svg width="1200" height="600" viewBox="0 0 1200 600" fill="none" xmlns="http://www.w3.org/2000/svg">
  <rect width="1200" height="600" fill="transparent"/>
  <g opacity="0.85" fill="#7C3AED">
    <circle cx="160" cy="155" r="2.2"/>
    <circle cx="190" cy="128" r="1.7"/>
    <circle cx="220" cy="168" r="1.8"/>
    <circle cx="250" cy="143" r="2.5"/>
    <circle cx="285" cy="175" r="1.6"/>
    <circle cx="320" cy="150" r="2"/>
    <circle cx="350" cy="178" r="1.7"/>
    <circle cx="390" cy="155" r="2.6"/>
    <circle cx="430" cy="188" r="1.8"/>
    <circle cx="470" cy="160" r="2.1"/>
    <circle cx="515" cy="180" r="1.9"/>
    <circle cx="560" cy="150" r="2.4"/>
    <circle cx="605" cy="175" r="1.7"/>
    <circle cx="645" cy="145" r="2.1"/>
    <circle cx="690" cy="168" r="1.8"/>
    <circle cx="735" cy="150" r="2.5"/>
    <circle cx="775" cy="178" r="1.7"/>
    <circle cx="820" cy="158" r="2.2"/>
    <circle cx="865" cy="182" r="1.8"/>
    <circle cx="910" cy="154" r="2.4"/>
    <circle cx="955" cy="176" r="1.6"/>
    <circle cx="1000" cy="148" r="2"/>
    <circle cx="1045" cy="172" r="1.7"/>
  </g>
  <g opacity="0.7" fill="#A78BFA">
    <circle cx="210" cy="290" r="2.2"/>
    <circle cx="245" cy="265" r="1.6"/>
    <circle cx="280" cy="305" r="2.1"/>
    <circle cx="320" cy="280" r="1.8"/>
    <circle cx="355" cy="312" r="2.5"/>
    <circle cx="405" cy="288" r="1.7"/>
    <circle cx="450" cy="320" r="2"/>
    <circle cx="495" cy="295" r="1.8"/>
    <circle cx="540" cy="330" r="2.4"/>
    <circle cx="585" cy="302" r="1.7"/>
    <circle cx="630" cy="336" r="2.2"/>
    <circle cx="675" cy="305" r="1.9"/>
    <circle cx="720" cy="338" r="2.1"/>
    <circle cx="770" cy="308" r="1.6"/>
    <circle cx="815" cy="340" r="2.4"/>
    <circle cx="860" cy="312" r="1.8"/>
    <circle cx="905" cy="345" r="2.2"/>
    <circle cx="950" cy="316" r="1.7"/>
    <circle cx="995" cy="342" r="2.5"/>
  </g>
  <g opacity="0.58" fill="#C4B5FD">
    <circle cx="145" cy="430" r="2"/>
    <circle cx="185" cy="405" r="1.7"/>
    <circle cx="230" cy="438" r="2.4"/>
    <circle cx="280" cy="410" r="1.6"/>
    <circle cx="330" cy="445" r="2.1"/>
    <circle cx="380" cy="418" r="1.8"/>
    <circle cx="430" cy="450" r="2.5"/>
    <circle cx="480" cy="422" r="1.7"/>
    <circle cx="530" cy="452" r="2.1"/>
    <circle cx="580" cy="425" r="1.6"/>
    <circle cx="630" cy="455" r="2.4"/>
    <circle cx="680" cy="430" r="1.8"/>
    <circle cx="730" cy="458" r="2.2"/>
    <circle cx="780" cy="432" r="1.7"/>
    <circle cx="830" cy="460" r="2.5"/>
    <circle cx="880" cy="434" r="1.8"/>
    <circle cx="930" cy="462" r="2.1"/>
    <circle cx="980" cy="437" r="1.6"/>
    <circle cx="1030" cy="459" r="2.3"/>
  </g>
</svg>
